# xmcd CD database file
# Copyright (C) 1993-1998 Ti Kan
#
# Track frame offsets:
#  182
#  5835
#  27485
#  51897
#  56270
#  76250
#  85060
#  95257
#  111600
#  124620
#  143447
#  145447
#
# Disc length: 2207 seconds
#
# Revision: 1
# Processed by: cddbd v1.4b41PL1 Copyright (c) Steve Scherf et al.
# Submitted via: CDWizzard Release:4.35
#
DISCID=9c089d0c
DTITLE=Today Is The Day - Today Is The Day
DYEAR=1900
DGENRE=
TTITLE0=hai piranha
TTITLE1=marked
TTITLE2=bugs death march
TTITLE3=a man of science
TTITLE4=realization
TTITLE5=black iron prison
TTITLE6=mountain people
TTITLE7=ripped off
TTITLE8=the tragedy
TTITLE9=she is in fear of death
TTITLE10=i love my woman
TTITLE11=dot matrix
EXTD=
EXTT0=
EXTT1=
EXTT2=
EXTT3=
EXTT4=
EXTT5=
EXTT6=
EXTT7=
EXTT8=
EXTT9=
EXTT10=
EXTT11=
PLAYORDER=
